<?xml version="1.0" encoding="UTF-8" standalone="no"?>
<svg width="94px" height="24px" viewBox="0 0 94 24" version="1.1" xmlns="http://www.w3.org/2000/svg" xmlns:xlink="http://www.w3.org/1999/xlink">
    <!-- Generator: Sketch 43.2 (39069) - http://www.bohemiancoding.com/sketch -->
    <title>logo</title>
    <desc>Created with Sketch.</desc>
    <defs></defs>
    <g id="_Documentation" stroke="none" stroke-width="1" fill="none" fill-rule="evenodd">
        <g id="Introduction" transform="translate(-32.000000, -22.000000)">
            <g id="header">
                <g id="logo" transform="translate(32.000000, 22.000000)">
                    <path d="M30.2490234,18.0581055 L38.0249023,18.0581055 L38.0249023,21 L26.5869141,21 L26.5869141,3.2265625 L30.2490234,3.2265625 L30.2490234,18.0581055 Z M43.4157227,21 L39.8756836,21 L39.8756836,7.79199219 L43.4157227,7.79199219 L43.4157227,21 Z M39.6681641,4.37402344 C39.6681641,3.84504944 39.8451642,3.40966968 40.1991699,3.06787109 C40.5531756,2.72607251 41.0353485,2.55517578 41.6457031,2.55517578 C42.2479197,2.55517578 42.7280581,2.72607251 43.0861328,3.06787109 C43.4442075,3.40966968 43.6232422,3.84504944 43.6232422,4.37402344 C43.6232422,4.9111355 43.442173,5.35058423 43.0800293,5.69238281 C42.7178856,6.0341814 42.2397816,6.20507812 41.6457031,6.20507812 C41.0516246,6.20507812 40.5735207,6.0341814 40.211377,5.69238281 C39.8492332,5.35058423 39.6681641,4.9111355 39.6681641,4.37402344 Z M47.0853516,21 L47.0853516,10.3798828 L45.1200195,10.3798828 L45.1200195,7.79199219 L47.0853516,7.79199219 L47.0853516,6.66894531 C47.0853516,5.18781812 47.5105589,4.03833417 48.3609863,3.22045898 C49.2114138,2.4025838 50.4015874,1.99365234 51.931543,1.99365234 C52.4198267,1.99365234 53.0179652,2.07503174 53.7259766,2.23779297 L53.6893555,4.97216797 C53.3963852,4.89892542 53.0383159,4.86230469 52.6151367,4.86230469 C51.2886327,4.86230469 50.6253906,5.48485706 50.6253906,6.72998047 L50.6253906,7.79199219 L53.2499023,7.79199219 L53.2499023,10.3798828 L50.6253906,10.3798828 L50.6253906,21 L47.0853516,21 Z M59.1045898,4.54492188 L59.1045898,7.79199219 L61.3628906,7.79199219 L61.3628906,10.3798828 L59.1045898,10.3798828 L59.1045898,16.9716797 C59.1045898,17.4599634 59.1981761,17.8098948 59.3853516,18.0214844 C59.572527,18.233074 59.9305963,18.3388672 60.4595703,18.3388672 C60.8501973,18.3388672 61.1960597,18.3103844 61.497168,18.253418 L61.497168,20.9267578 C60.8054327,21.1383474 60.093363,21.2441406 59.3609375,21.2441406 C56.8869668,21.2441406 55.6255862,19.9949669 55.5767578,17.496582 L55.5767578,10.3798828 L53.6480469,10.3798828 L53.6480469,7.79199219 L55.5767578,7.79199219 L55.5767578,4.54492188 L59.1045898,4.54492188 Z M62.2126953,14.2739258 C62.2126953,12.9636979 62.4649714,11.7959036 62.9695312,10.7705078 C63.4740911,9.74511206 64.2004021,8.95166296 65.1484863,8.39013672 C66.0965705,7.82861047 67.1972268,7.54785156 68.4504883,7.54785156 C70.2327237,7.54785156 71.6873804,8.09309351 72.8145019,9.18359375 C73.9416235,10.274094 74.5702793,11.755199 74.7004883,13.6269531 L74.7249023,14.5302734 C74.7249023,16.5566508 74.1593155,18.1822042 73.028125,19.4069824 C71.8969344,20.6317607 70.3792087,21.2441406 68.4749023,21.2441406 C66.5705959,21.2441406 65.0508357,20.6337952 63.9155762,19.4130859 C62.7803166,18.1923767 62.2126953,16.5322371 62.2126953,14.4326172 L62.2126953,14.2739258 Z M65.7405273,14.5302734 C65.7405273,15.7835349 65.9765276,16.7417773 66.4485351,17.4050293 C66.9205427,18.0682813 67.5959917,18.3999023 68.4749023,18.3999023 C69.3293988,18.3999023 69.9967098,18.0723503 70.4768555,17.4172363 C70.9570011,16.7621224 71.1970703,15.7143627 71.1970703,14.2739258 C71.1970703,13.0450785 70.9570011,12.0929396 70.4768555,11.4174805 C69.9967098,10.7420214 69.3212609,10.4042969 68.4504883,10.4042969 C67.5878537,10.4042969 66.9205427,10.7399869 66.4485351,11.411377 C65.9765276,12.082767 65.7405273,13.1223888 65.7405273,14.5302734 Z M77.6621094,21 L77.6621094,10.3798828 L75.6967773,10.3798828 L75.6967773,7.79199219 L77.6621094,7.79199219 L77.6621094,6.66894531 C77.6621094,5.18781812 78.0873167,4.03833417 78.9377441,3.22045898 C79.7881716,2.4025838 80.9783452,1.99365234 82.5083008,1.99365234 C82.9965845,1.99365234 83.594723,2.07503174 84.3027344,2.23779297 L84.2661133,4.97216797 C83.9731431,4.89892542 83.6150737,4.86230469 83.1918945,4.86230469 C81.8653905,4.86230469 81.2021484,5.48485706 81.2021484,6.72998047 L81.2021484,7.79199219 L83.8266601,7.79199219 L83.8266601,10.3798828 L81.2021484,10.3798828 L81.2021484,21 L77.6621094,21 Z M86.4220703,21 L86.4220703,10.3798828 L84.4567383,10.3798828 L84.4567383,7.79199219 L86.4220703,7.79199219 L86.4220703,6.66894531 C86.4220703,5.18781812 86.8472776,4.03833417 87.6977051,3.22045898 C88.5481325,2.4025838 89.7383061,1.99365234 91.2682617,1.99365234 C91.7565454,1.99365234 92.3546839,2.07503174 93.0626953,2.23779297 L93.0260742,4.97216797 C92.733104,4.89892542 92.3750347,4.86230469 91.9518555,4.86230469 C90.6253514,4.86230469 89.9621094,5.48485706 89.9621094,6.72998047 L89.9621094,7.79199219 L92.5866211,7.79199219 L92.5866211,10.3798828 L89.9621094,10.3798828 L89.9621094,21 L86.4220703,21 Z" id="Liftoff" fill="#6D7C86"></path>
                    <g id="rocket" fill-rule="nonzero">
                        <g id="Group" transform="translate(0.000000, 8.621902)" fill="#39ABC0">
                            <path d="M1.83416906,11.4635683 C1.69326656,11.5625796 1.55953337,11.5117854 1.50859854,11.4853105 C1.45771058,11.4588825 1.33925314,11.3787551 1.33925314,11.2065044 L1.33925314,6.68876842 L5.37664615,2.16915806 L5.37664615,0.166159045 L0.295909297,5.85380282 C0.108242356,6.06410225 0.00487324891,6.33512987 0.00487324891,6.61693486 L0.00487324891,11.2065982 C0.00487324891,11.8243762 0.345391516,12.3849404 0.893585161,12.6696037 C1.13392068,12.7944339 1.39449892,12.8560992 1.65414,12.8560992 C1.98678609,12.8560992 2.3177453,12.754745 2.60156519,12.5552698 L3.16362885,12.1601618 L2.39623272,11.068554 L1.83416906,11.4635683 Z" id="Shape"></path>
                            <path d="M16.947754,5.85352167 L11.7577439,0.0436249494 L11.7577439,2.04662397 L15.9045507,6.68876842 L15.9045507,11.2065044 C15.9045507,11.3787551 15.7861401,11.4588357 15.7352053,11.4853105 C15.6842236,11.5117385 15.5505373,11.5625796 15.4096348,11.4635683 L14.8475711,11.0684603 L14.080175,12.1600681 L14.6422386,12.5551761 C14.9260585,12.754745 15.2569709,12.8560055 15.5896638,12.8560055 C15.8492581,12.8560055 16.10993,12.7943401 16.3502187,12.66951 C16.8983655,12.3847998 17.2389306,11.8242356 17.2389306,11.2064576 L17.2389306,6.61684114 C17.2389774,6.33508301 17.1356083,6.06410225 16.947754,5.85352167 Z" id="Shape"></path>
                            <path d="M8.62185506,15.3694773 L8.26231238,15.1395443 C8.1444641,15.0641964 5.37655243,13.2665298 5.37655243,10.8945697 C5.37655243,8.55016207 6.74392048,6.64134796 8.48948075,6.54880309 C8.53793209,6.54627275 8.57968271,6.54439842 8.6218082,6.54439842 C8.85998824,6.54439842 9.09779342,6.57860488 9.32856987,6.64603377 C9.86345579,6.8023526 10.3620735,7.13949708 10.7705361,7.62101156 C11.4674107,8.4427163 11.8671577,9.6358657 11.8671577,10.8945228 C11.8671577,13.266483 9.09924602,15.0641495 8.98139774,15.1394975 L8.62185506,15.3694773 Z M8.62185506,7.87873146 C8.60329923,7.87873146 8.58483711,7.88009034 8.56642185,7.88098065 C7.5405561,7.93528926 6.71093233,9.28700668 6.71093233,10.8945228 C6.71093233,12.0427821 7.87760686,13.1856058 8.62185506,13.7591966 C9.3660564,13.1856058 10.5327778,12.0427821 10.5327778,10.8945228 C10.5327778,9.94705075 10.2485362,9.06846021 9.75296424,8.48409206 C9.51403447,8.20233393 9.23780561,8.00965316 8.95431372,7.92676107 C8.8451342,7.89494438 8.73328377,7.87873146 8.62185506,7.87873146 Z" id="Shape"></path>
                        </g>
                        <path d="M8.62307337,0.667213377 C7.85361548,0.667213377 2.97727393,4.84953868 2.97727393,9.06522699 C2.97727393,10.5003519 4.69556276,19.5164716 4.69556276,19.5164716 L12.5481942,19.5164716 C12.5481942,19.5164716 14.2665768,10.5005862 14.2665768,9.06546128 C14.2665299,4.8261096 9.34586053,0.667213377 8.62307337,0.667213377 Z M11.5395254,9.99025398 C11.4800155,10.2811026 11.3781459,10.5564412 11.2406172,10.8096158 C11.1947899,10.8940074 11.1449328,10.9759623 11.0914208,11.0551526 C10.8773259,11.3720543 10.6039085,11.6454717 10.2869599,11.8596135 C10.2077696,11.9131255 10.1258146,11.9629826 10.0414231,12.0088099 C9.78820158,12.1463855 9.51286302,12.2482551 9.22206126,12.307765 C9.02816219,12.347407 8.82746868,12.3682589 8.62185506,12.3682589 C6.97708669,12.3682589 5.64369082,11.034863 5.64369082,9.39009463 C5.64369082,7.74532627 6.97699298,6.41193039 8.62185506,6.41193039 C8.82746868,6.41193039 9.02816219,6.43282913 9.22206126,6.47242428 C9.51290988,6.53193415 9.78824844,6.63380379 10.0414231,6.7713325 C10.167987,6.84012028 10.2890685,6.91776426 10.4037304,7.0035147 C10.6712905,7.20359905 10.9040819,7.4475895 11.0914208,7.72489611 C11.4125398,8.20022531 11.6000193,8.77320692 11.6000193,9.39000092 C11.6000193,9.59566139 11.5792143,9.7963549 11.5395254,9.99025398 Z" id="Shape" fill="#C3EEF6"></path>
                        <g id="Group" transform="translate(2.296050, 0.000000)" fill="#39ABC0">
                            <path d="M6.32580509,13.0354254 C4.31573049,13.0354254 2.68042747,11.4001224 2.68042747,9.39004778 C2.68042747,7.37997317 4.31573049,5.7446233 6.32580509,5.7446233 C6.57260703,5.7446233 6.81954955,5.7695987 7.05979135,5.8186592 C7.41075899,5.8904459 7.74855948,6.01368287 8.06386806,6.18494945 C8.21784398,6.26863813 8.36699351,6.36422878 8.50728685,6.46909735 C8.83595,6.71486842 9.11883273,7.01171488 9.34820344,7.3513897 C9.75572888,7.95468854 9.97118271,8.65957588 9.97118271,9.39000092 C9.97118271,9.63666229 9.94630102,9.88351109 9.89724053,10.123706 C9.82531325,10.474908 9.70207628,10.8126616 9.53095027,11.1279233 C9.47504848,11.2308238 9.41357057,11.3318969 9.34825029,11.4286121 C9.085048,11.8181909 8.75404193,12.1492438 8.36446317,12.4123055 C8.26816965,12.4774384 8.16704973,12.5388226 8.06410235,12.5948649 C7.74860634,12.7661784 7.41080585,12.8894154 7.05979135,12.9612021 C6.81959641,13.01045 6.57270075,13.0354254 6.32580509,13.0354254 Z M6.32580509,7.07909691 C5.05154422,7.07909691 4.01485423,8.1157869 4.01485423,9.39014149 C4.01485423,10.6644024 5.05154422,11.7010924 6.32580509,11.7010924 C6.48292051,11.7010924 6.63994221,11.6853012 6.79223124,11.6541405 C7.01401093,11.6087818 7.22749671,11.5308566 7.4268782,11.4225674 C7.49215162,11.3871427 7.55625358,11.3481567 7.61730977,11.3068746 C7.86495516,11.139591 8.07525459,10.9292916 8.24253823,10.6817867 C8.28405456,10.620262 8.3229937,10.55616 8.35837161,10.4911209 C8.46652025,10.2920205 8.54444537,10.0783942 8.58989779,9.85656764 C8.62105847,9.70437233 8.63680281,9.54739749 8.63680281,9.39028207 C8.63680281,8.92713599 8.50044556,8.48043712 8.24253823,8.09863681 C8.09666877,7.88285498 7.91696772,7.69420401 7.70812089,7.53807262 C7.61913724,7.47153402 7.52443689,7.41089956 7.42678448,7.35780926 C7.22763729,7.24956691 7.01405778,7.17164178 6.79232496,7.12628308 C6.63994221,7.09488811 6.48301423,7.07909691 6.32580509,7.07909691 Z" id="Shape"></path>
                            <path d="M2.95220482,18.8492113 L9.69940536,18.8492113 C10.2278249,16.0439069 11.3032666,10.1170053 11.3032666,9.06536757 C11.3032666,5.37575584 7.23091736,1.80727247 6.32393076,1.36099533 C5.93135308,1.55630015 4.75615036,2.44070111 3.58324369,3.88833719 C2.14202719,5.66693247 1.34839049,7.50555305 1.34839049,9.06518013 C1.34839049,10.1169585 2.42378532,16.0439537 2.95220482,18.8492113 Z M10.8042271,20.1836381 L1.84738306,20.1836381 L1.74401395,19.6413486 C1.56693696,18.7121512 0.0139168743,10.5214381 0.0139168743,9.06522699 C0.0139168743,6.5922406 1.47659442,4.32435239 2.70366912,2.85731704 C3.62775895,1.752589 5.42842442,0 6.3270234,0 C7.20711341,0 9.00426452,1.74631 9.93036925,2.8470551 C11.1655036,4.31516819 12.6377402,6.5856336 12.6377402,9.06541442 C12.6377402,10.5215787 11.0847201,18.7121981 10.9075494,19.6413486 L10.8042271,20.1836381 Z" id="Shape"></path>
                        </g>
                    </g>
                </g>
            </g>
        </g>
    </g>
</svg>